<svg width="48" height="48" viewBox="0 0 48 48" fill="none" xmlns="http://www.w3.org/2000/svg">
<path d="M13.2028 38.4074C13.2028 41.987 10.301 44.8887 6.72152 44.8887C3.14201 44.8887 0.240234 41.987 0.240234 38.4074C0.240234 34.8279 3.14201 31.9261 6.72152 31.9261C10.301 31.9261 13.2028 34.8279 13.2028 38.4074ZM3.36754 38.4074C3.36754 40.2598 4.86917 41.7614 6.72152 41.7614C8.57388 41.7614 10.0755 40.2598 10.0755 38.4074C10.0755 36.5551 8.57388 35.0535 6.72152 35.0535C4.86917 35.0535 3.36754 36.5551 3.36754 38.4074Z" fill="#0E1821"/>
<circle cx="6.72083" cy="38.4079" r="3.24064" stroke="#0E1821" stroke-width="0.720143"/>
<circle cx="6.72152" cy="38.4074" r="6.12122" stroke="#0E1821" stroke-width="0.720143"/>
<path d="M47.7702 38.4074C47.7702 41.987 44.8684 44.8887 41.2889 44.8887C37.7094 44.8887 34.8076 41.987 34.8076 38.4074C34.8076 34.8279 37.7094 31.9261 41.2889 31.9261C44.8684 31.9261 47.7702 34.8279 47.7702 38.4074ZM37.9349 38.4074C37.9349 40.2598 39.4365 41.7614 41.2889 41.7614C43.1413 41.7614 44.6429 40.2598 44.6429 38.4074C44.6429 36.5551 43.1413 35.0535 41.2889 35.0535C39.4365 35.0535 37.9349 36.5551 37.9349 38.4074Z" fill="#0E1821"/>
<circle cx="41.2892" cy="38.4079" r="3.24064" stroke="#0E1821" stroke-width="0.720143"/>
<circle cx="41.2889" cy="38.4074" r="6.12122" stroke="#0E1821" stroke-width="0.720143"/>
<path d="M33.367 33.8469H15.6035L15.9636 38.5278H29.5263L33.367 33.8469Z" fill="#F15152" stroke="#0E1821" stroke-width="0.720143" stroke-linecap="round" stroke-linejoin="round"/>
<path d="M7.25114 27.9771L7.26663 27.9792L7.28225 27.9801C12.2746 28.2438 16.338 32.015 17.0525 36.8748C17.1431 37.4906 16.6303 38.0473 15.9341 38.0473C15.2688 38.0473 14.6881 37.4924 14.5325 36.754C13.7711 33.14 10.5653 30.4267 6.72467 30.4254L2.52636 30.3658L2.52636 30.3658H2.52125C1.85837 30.3658 1.32101 29.8284 1.32101 29.1655C1.32101 28.5027 1.85837 27.9653 2.52125 27.9653H7.08215C7.1397 27.9653 7.1961 27.9693 7.25114 27.9771Z" fill="#2A5275" stroke="#0E1821" stroke-width="0.720143"/>
<path d="M34.9398 5.9409L34.8889 5.64099H34.5848L32.0476 5.64099V3.96066H36.0084C36.1571 3.96066 36.2856 4.05105 36.3403 4.1808L38.2068 15.0108L36.5251 15.2958L34.9398 5.9409Z" fill="#4878A6" stroke="#0E1821" stroke-width="0.720143"/>
<mask id="path-10-inside-1_202_8396" fill="white">
<path fill-rule="evenodd" clip-rule="evenodd" d="M39.7537 24.5345C39.0047 23.9975 37.9623 24.1693 37.4253 24.9183L28.9584 36.727L6.96354 36.727C6.03551 36.727 5.2832 37.4793 5.2832 38.4074C5.2832 39.3354 6.03551 40.0877 6.96354 40.0877L29.7681 40.0877C30.2595 40.0877 30.7017 39.8767 31.009 39.5403C31.0868 39.4672 31.1588 39.3854 31.2234 39.2953L40.1374 26.8629C40.6744 26.1139 40.5026 25.0715 39.7537 24.5345Z"/>
</mask>
<path fill-rule="evenodd" clip-rule="evenodd" d="M39.7537 24.5345C39.0047 23.9975 37.9623 24.1693 37.4253 24.9183L28.9584 36.727L6.96354 36.727C6.03551 36.727 5.2832 37.4793 5.2832 38.4074C5.2832 39.3354 6.03551 40.0877 6.96354 40.0877L29.7681 40.0877C30.2595 40.0877 30.7017 39.8767 31.009 39.5403C31.0868 39.4672 31.1588 39.3854 31.2234 39.2953L40.1374 26.8629C40.6744 26.1139 40.5026 25.0715 39.7537 24.5345Z" fill="#4878A6"/>
<path d="M37.4253 24.9183L38.0105 25.3379V25.3379L37.4253 24.9183ZM39.7537 24.5345L39.334 25.1197L39.7537 24.5345ZM28.9584 36.727V37.4472H29.3281L29.5436 37.1467L28.9584 36.727ZM6.96354 36.727V36.0069V36.727ZM6.96354 40.0877V39.3676V40.0877ZM29.7681 40.0877V40.8078V40.0877ZM31.009 39.5403L30.5158 39.0156L30.4958 39.0344L30.4773 39.0546L31.009 39.5403ZM31.2234 39.2953L31.8086 39.715L31.8086 39.715L31.2234 39.2953ZM40.1374 26.8629L40.7227 27.2825V27.2825L40.1374 26.8629ZM38.0105 25.3379C38.3158 24.9122 38.9083 24.8145 39.334 25.1197L40.1733 23.9492C39.1011 23.1805 37.6088 23.4265 36.84 24.4986L38.0105 25.3379ZM29.5436 37.1467L38.0105 25.3379L36.84 24.4986L28.3731 36.3074L29.5436 37.1467ZM6.96354 37.4472L28.9584 37.4472V36.0069L6.96354 36.0069L6.96354 37.4472ZM6.00335 38.4074C6.00335 37.8771 6.43324 37.4472 6.96354 37.4472V36.0069C5.63779 36.0069 4.56306 37.0816 4.56306 38.4074H6.00335ZM6.96354 39.3676C6.43324 39.3676 6.00335 38.9377 6.00335 38.4074H4.56306C4.56306 39.7331 5.63779 40.8078 6.96354 40.8078V39.3676ZM29.7681 39.3676L6.96354 39.3676L6.96354 40.8078L29.7681 40.8078V39.3676ZM30.4773 39.0546C30.3007 39.2479 30.0489 39.3676 29.7681 39.3676V40.8078C30.4702 40.8078 31.1027 40.5055 31.5407 40.026L30.4773 39.0546ZM30.6381 38.8757C30.6008 38.9277 30.5598 38.9742 30.5158 39.0156L31.5022 40.0651C31.6139 39.9601 31.7167 39.8432 31.8086 39.715L30.6381 38.8757ZM39.5522 26.4433L30.6381 38.8757L31.8086 39.715L40.7227 27.2825L39.5522 26.4433ZM39.334 25.1197C39.7598 25.425 39.8574 26.0175 39.5522 26.4433L40.7227 27.2825C41.4914 26.2103 41.2455 24.718 40.1733 23.9492L39.334 25.1197Z" fill="#0E1821" mask="url(#path-10-inside-1_202_8396)"/>
<rect x="36.0402" y="15.1377" width="2.61713" height="24.6818" rx="1.30857" transform="rotate(-9.61845 36.0402 15.1377)" fill="#4878A6" stroke="#0E1821" stroke-width="0.720143"/>
<rect x="32.0452" y="3.48055" width="2.64052" height="6.96138" rx="1.32026" transform="rotate(90 32.0452 3.48055)" fill="#2A5275" stroke="#0E1821" stroke-width="0.720143"/>
<path d="M39.0099 4.20044L36.6094 5.5207L37.2095 9.24144H39.85L39.0099 4.20044Z" fill="#4878A6" stroke="#0E1821" stroke-width="0.720143" stroke-linecap="round" stroke-linejoin="round"/>
<path fill-rule="evenodd" clip-rule="evenodd" d="M39.71 8.40118L39.2051 5.37163C39.3695 5.31277 39.5466 5.2807 39.7312 5.2807C40.593 5.2807 41.2915 5.97928 41.2915 6.84101C41.2915 7.70275 40.593 8.40132 39.7312 8.40132C39.7241 8.40132 39.7171 8.40127 39.71 8.40118Z" fill="#FBB13C"/>
<path d="M39.71 8.40118L39.3548 8.46037L39.4043 8.75721L39.7052 8.76122L39.71 8.40118ZM39.2051 5.37163L39.0837 5.03264L38.8004 5.13407L38.8499 5.43083L39.2051 5.37163ZM40.0652 8.34198L39.5603 5.31244L38.8499 5.43083L39.3548 8.46037L40.0652 8.34198ZM39.3265 5.71062C39.4525 5.66551 39.5886 5.64077 39.7312 5.64077V4.92063C39.5046 4.92063 39.2865 4.96002 39.0837 5.03264L39.3265 5.71062ZM39.7312 5.64077C40.3941 5.64077 40.9315 6.17814 40.9315 6.84101H41.6516C41.6516 5.78041 40.7918 4.92063 39.7312 4.92063V5.64077ZM40.9315 6.84101C40.9315 7.50388 40.3941 8.04125 39.7312 8.04125V8.76139C40.7918 8.76139 41.6516 7.90161 41.6516 6.84101H40.9315ZM39.7312 8.04125C39.7257 8.04125 39.7203 8.04121 39.7148 8.04114L39.7052 8.76122C39.7139 8.76133 39.7225 8.76139 39.7312 8.76139V8.04125Z" fill="#0E1821"/>
<circle cx="24.005" cy="22.8045" r="8.28164" fill="white" stroke="#0E1821" stroke-width="0.720143"/>
<path d="M22.1009 17.0782C22.1243 16.9989 22.1729 16.9292 22.2393 16.8797C22.3058 16.8302 22.3866 16.8035 22.4696 16.8035H25.542C25.6028 16.8036 25.6627 16.818 25.7169 16.8456C25.771 16.8733 25.8178 16.9133 25.8533 16.9625C25.8889 17.0116 25.9122 17.0685 25.9214 17.1284C25.9305 17.1883 25.9253 17.2495 25.9061 17.307L24.5388 21.3942H27.4622C27.5342 21.3941 27.6047 21.4142 27.6657 21.4521C27.7267 21.49 27.7758 21.5442 27.8075 21.6085C27.8391 21.6729 27.8519 21.7448 27.8445 21.816C27.8371 21.8873 27.8098 21.9551 27.7656 22.0116L22.3889 28.8976C22.3338 28.9684 22.2555 29.0178 22.1676 29.037C22.0797 29.0563 21.9879 29.0442 21.908 29.0028C21.8282 28.9614 21.7655 28.8935 21.7308 28.8108C21.6961 28.728 21.6917 28.6358 21.7184 28.5502L23.1017 24.072H20.5493C20.4896 24.0721 20.4307 24.0582 20.3773 24.0316C20.3239 24.005 20.2775 23.9664 20.2417 23.9188C20.2059 23.8712 20.1817 23.8159 20.1711 23.7574C20.1605 23.6989 20.1638 23.6387 20.1806 23.5816L22.1009 17.0782ZM22.7568 17.5686L21.0624 23.3069H23.6217C23.6818 23.3069 23.7411 23.321 23.7948 23.3479C23.8484 23.3749 23.895 23.414 23.9307 23.4622C23.9664 23.5103 23.9903 23.5661 24.0004 23.6252C24.0105 23.6842 24.0066 23.7447 23.9889 23.802L23.0687 26.7805L26.6772 22.1593H24.0058C23.945 22.1592 23.885 22.1448 23.8309 22.1172C23.7768 22.0895 23.73 22.0495 23.6945 22.0003C23.6589 21.9512 23.6356 21.8943 23.6264 21.8344C23.6172 21.7745 23.6225 21.7133 23.6417 21.6558L25.0089 17.5686H22.7568Z" fill="#F15152"/>
</svg>
