<svg width="48" height="48" viewBox="0 0 48 48" fill="none" xmlns="http://www.w3.org/2000/svg">
<g clip-path="url(#clip0_203_9174)">
<path d="M13.0576 34.1664C13.8251 34.5581 15.7189 34.8776 17.1539 33.0221" stroke="black" stroke-width="0.72"/>
<rect x="14.9058" y="30.331" width="17.76" height="5.04" rx="1.56" transform="rotate(-30 14.9058 30.331)" fill="#F15152" stroke="#0E1821" stroke-width="0.72"/>
<path d="M36.8294 20.5407L35.8882 18.9105C35.6231 18.4513 35.7804 17.8642 36.2396 17.5991L40.1887 15.3191C40.6478 15.054 41.235 15.2113 41.5 15.6705L42.4412 17.3007C42.5685 17.5211 42.603 17.7832 42.5371 18.0291L41.7026 21.1437C41.5654 21.6558 41.039 21.9597 40.5268 21.8225L37.4123 20.9879C37.1664 20.922 36.9567 20.7611 36.8294 20.5407Z" fill="white" stroke="#0E1821" stroke-width="0.72"/>
<path d="M8.15009 37.1099L7.20363 35.4705C6.93854 35.0114 7.09586 34.4243 7.55502 34.1592L11.2962 31.9992C11.7554 31.7341 12.3425 31.8914 12.6076 32.3505L13.5541 33.9899C13.6783 34.2049 13.7143 34.4597 13.6545 34.7008L12.9054 37.7234C12.7745 38.2518 12.2308 38.5657 11.7077 38.4149L8.71556 37.5523C8.47694 37.4835 8.27426 37.3249 8.15009 37.1099Z" fill="white" stroke="#0E1821" stroke-width="0.72"/>
<path d="M45.1998 11.04L1.55209 36.24C1.09293 36.5051 0.935607 37.0922 1.2007 37.5514C1.4658 38.0105 2.05293 38.1678 2.51209 37.9027L3.69648 37.2189C4.71582 36.6304 5.81911 36.2012 6.96814 35.946L7.18442 35.898C8.47681 35.611 9.71773 35.1282 10.8642 34.4663L39.0076 18.2177C40.1541 17.5557 41.1927 16.7225 42.0874 15.7467L42.2372 15.5834C43.0326 14.7159 43.956 13.9751 44.9754 13.3866L46.1598 12.7027C46.6189 12.4376 46.7762 11.8505 46.5112 11.3914C46.2461 10.9322 45.6589 10.7749 45.1998 11.04Z" fill="#4878A6" stroke="#0E1821" stroke-width="0.72"/>
<circle cx="42.5692" cy="24.0122" r="2.04235" transform="rotate(-30 42.5692 24.0122)" fill="white"/>
<mask id="path-7-inside-1_203_9174" fill="white">
<path d="M46.8659 21.5323C48.2356 23.9046 47.4227 26.9381 45.0504 28.3077C42.6781 29.6774 39.6446 28.8646 38.2749 26.4923C36.9053 24.1199 37.7181 21.0864 40.0904 19.7168C42.4627 18.3471 45.4962 19.1599 46.8659 21.5323ZM41.1727 24.8192C41.6184 25.5911 42.6054 25.8556 43.3774 25.41C44.1493 24.9643 44.4138 23.9772 43.9681 23.2053C43.5224 22.4334 42.5354 22.1689 41.7635 22.6146C40.9915 23.0602 40.727 24.0473 41.1727 24.8192Z"/>
</mask>
<path d="M46.8659 21.5323C48.2356 23.9046 47.4227 26.9381 45.0504 28.3077C42.6781 29.6774 39.6446 28.8646 38.2749 26.4923C36.9053 24.1199 37.7181 21.0864 40.0904 19.7168C42.4627 18.3471 45.4962 19.1599 46.8659 21.5323ZM41.1727 24.8192C41.6184 25.5911 42.6054 25.8556 43.3774 25.41C44.1493 24.9643 44.4138 23.9772 43.9681 23.2053C43.5224 22.4334 42.5354 22.1689 41.7635 22.6146C40.9915 23.0602 40.727 24.0473 41.1727 24.8192Z" fill="#0E1821" stroke="#0E1821" stroke-width="1.44" mask="url(#path-7-inside-1_203_9174)"/>
<circle cx="13.7645" cy="40.6426" r="2.04235" transform="rotate(-30 13.7645 40.6426)" fill="white"/>
<mask id="path-9-inside-2_203_9174" fill="white">
<path d="M18.0612 38.1626C19.4309 40.535 18.6181 43.5685 16.2457 44.9381C13.8734 46.3078 10.8399 45.495 9.47023 43.1226C8.10057 40.7503 8.91339 37.7168 11.2857 36.3471C13.6581 34.9775 16.6915 35.7903 18.0612 38.1626ZM12.368 41.4496C12.8137 42.2215 13.8008 42.486 14.5727 42.0403C15.3446 41.5947 15.6091 40.6076 15.1634 39.8357C14.7177 39.0638 13.7307 38.7993 12.9588 39.2449C12.1868 39.6906 11.9224 40.6777 12.368 41.4496Z"/>
</mask>
<path d="M18.0612 38.1626C19.4309 40.535 18.6181 43.5685 16.2457 44.9381C13.8734 46.3078 10.8399 45.495 9.47023 43.1226C8.10057 40.7503 8.91339 37.7168 11.2857 36.3471C13.6581 34.9775 16.6915 35.7903 18.0612 38.1626ZM12.368 41.4496C12.8137 42.2215 13.8008 42.486 14.5727 42.0403C15.3446 41.5947 15.6091 40.6076 15.1634 39.8357C14.7177 39.0638 13.7307 38.7993 12.9588 39.2449C12.1868 39.6906 11.9224 40.6777 12.368 41.4496Z" fill="#0E1821" stroke="#0E1821" stroke-width="1.44" mask="url(#path-9-inside-2_203_9174)"/>
<circle cx="13.6791" cy="12.4801" r="8.28" fill="white" stroke="#0E1821" stroke-width="0.72"/>
<path d="M11.7763 6.75472C11.7997 6.67542 11.8482 6.6058 11.9147 6.55629C11.9812 6.50679 12.0619 6.48005 12.1449 6.4801H15.2167C15.2775 6.48015 15.3374 6.49458 15.3916 6.52221C15.4457 6.54984 15.4924 6.58987 15.528 6.63902C15.5635 6.68817 15.5868 6.74502 15.596 6.8049C15.6052 6.86478 15.5999 6.92597 15.5807 6.98344L14.2138 11.0698H17.1366C17.2085 11.0698 17.279 11.0898 17.34 11.1277C17.401 11.1656 17.4501 11.2198 17.4817 11.2842C17.5133 11.3485 17.5262 11.4204 17.5188 11.4916C17.5114 11.5629 17.4841 11.6306 17.4399 11.6871L12.0643 18.5717C12.0092 18.6426 11.9309 18.692 11.843 18.7112C11.7551 18.7304 11.6633 18.7183 11.5835 18.677C11.5036 18.6356 11.4409 18.5677 11.4063 18.485C11.3716 18.4023 11.3672 18.3101 11.3938 18.2244L12.7769 13.7472H10.225C10.1653 13.7472 10.1064 13.7334 10.053 13.7068C9.99966 13.6802 9.95323 13.6415 9.91744 13.594C9.88166 13.5464 9.85751 13.4911 9.84692 13.4326C9.83632 13.3741 9.83957 13.3139 9.8564 13.2568L11.7763 6.75472ZM12.4321 7.24506L10.738 12.9822H13.2968C13.3569 12.9822 13.4162 12.9962 13.4698 13.0232C13.5235 13.0502 13.57 13.0893 13.6057 13.1374C13.6414 13.1856 13.6653 13.2414 13.6754 13.3004C13.6855 13.3594 13.6816 13.4199 13.6639 13.4771L12.7439 16.4551L16.3517 11.8348H13.6808C13.62 11.8347 13.5601 11.8203 13.5059 11.7927C13.4518 11.765 13.4051 11.725 13.3695 11.6759C13.334 11.6267 13.3107 11.5699 13.3015 11.51C13.2923 11.4501 13.2976 11.3889 13.3168 11.3314L14.6837 7.24506H12.4321Z" fill="#F15152"/>
</g>
<defs>
<clipPath id="clip0_203_9174">
<rect width="48" height="48" fill="white"/>
</clipPath>
</defs>
</svg>
