<svg width="48" height="48" viewBox="0 0 48 48" fill="none" xmlns="http://www.w3.org/2000/svg">
<path fill-rule="evenodd" clip-rule="evenodd" d="M11.213 36.9436L22.008 26.7108V21.6506H23.6947V26.1486H34.4898L34.04 21.3133C33.9275 19.4017 34.4448 17.9848 38.7628 17.2651L39.1002 18.9519C38.1631 18.9893 36.244 19.4916 36.0641 20.3012C35.8841 21.1109 37.1136 31.6585 37.7508 36.8312L36.0641 37.5059L34.8271 28.51L25.3815 37.281L24.7068 35.5942L32.9155 27.8353H23.6947V35.8191V39.1926H9.63867L11.213 36.9436ZM22.008 29.1847V35.8191V37.7308H12.6748L22.008 29.1847Z" fill="#4878A6" stroke="#0E1821" stroke-width="0.720136" stroke-linecap="round" stroke-linejoin="round"/>
<circle cx="10.6514" cy="38.8555" r="8.07357" stroke="#0E1821" stroke-width="0.720136"/>
<path d="M18.6376 38.8558C18.6376 43.2651 15.0631 46.8396 10.6538 46.8396C6.24441 46.8396 2.66992 43.2651 2.66992 38.8558C2.66992 34.4464 6.24441 30.8719 10.6538 30.8719C15.0631 30.8719 18.6376 34.4464 18.6376 38.8558ZM4.81562 38.8558C4.81562 42.0801 7.42944 44.6939 10.6538 44.6939C13.8781 44.6939 16.4919 42.0801 16.4919 38.8558C16.4919 35.6315 13.8781 33.0176 10.6538 33.0176C7.42944 33.0176 4.81562 35.6315 4.81562 38.8558Z" fill="#0E1821"/>
<circle cx="10.6514" cy="38.8555" r="8.07357" stroke="#0E1821" stroke-width="0.720136"/>
<circle cx="10.6512" cy="38.8553" r="5.5997" stroke="#0E1821" stroke-width="0.720136"/>
<circle cx="10.6534" cy="38.8557" r="2.00135" fill="#F15152" stroke="#0E1821" stroke-width="0.720136"/>
<path d="M45.3993 38.8558C45.3993 43.2651 41.8248 46.8396 37.4155 46.8396C33.0061 46.8396 29.4316 43.2651 29.4316 38.8558C29.4316 34.4464 33.0061 30.8719 37.4155 30.8719C41.8248 30.8719 45.3993 34.4464 45.3993 38.8558ZM31.5773 38.8558C31.5773 42.0801 34.1912 44.6939 37.4155 44.6939C40.6398 44.6939 43.2536 42.0801 43.2536 38.8558C43.2536 35.6315 40.6398 33.0176 37.4155 33.0176C34.1912 33.0176 31.5773 35.6315 31.5773 38.8558Z" fill="#0E1821"/>
<circle cx="37.4141" cy="38.8555" r="8.07357" stroke="#0E1821" stroke-width="0.720136"/>
<circle cx="37.4158" cy="38.8553" r="5.5997" stroke="#0E1821" stroke-width="0.720136"/>
<circle cx="37.4151" cy="38.8557" r="2.00135" fill="#F15152" stroke="#0E1821" stroke-width="0.720136"/>
<circle cx="22.9093" cy="38.0685" r="2.78849" fill="#2A5275" stroke="#0E1821" stroke-width="0.720136"/>
<line x1="22.9256" y1="38.0838" x2="22.9256" y2="43.0012" stroke="#0E1821" stroke-width="0.480091" stroke-linecap="round"/>
<line x1="23.8987" y1="42.9264" x2="21.9201" y2="42.9264" stroke="#0E1821" stroke-width="0.720136" stroke-linecap="round"/>
<circle cx="40.4511" cy="17.6025" r="1.8889" fill="#F15152" stroke="#0E1821" stroke-width="0.720136"/>
<path d="M8.5166 14.679V23.0044C8.5166 23.6231 9.01814 24.1246 9.63683 24.1246H22.2353" stroke="#0E1821" stroke-width="0.720136"/>
<circle cx="29.6559" cy="9.0565" r="7.73622" fill="white" stroke="#0E1821" stroke-width="0.720136"/>
<path d="M27.8703 3.6913C27.8922 3.61698 27.9377 3.55175 28 3.50535C28.0623 3.45896 28.138 3.43391 28.2157 3.43396H31.0942C31.1512 3.434 31.2074 3.44753 31.2581 3.47342C31.3088 3.49931 31.3526 3.53682 31.3859 3.58288C31.4192 3.62893 31.4411 3.68221 31.4496 3.73832C31.4582 3.79443 31.4533 3.85177 31.4353 3.90563L30.1544 7.73486H32.8933C32.9607 7.73481 33.0267 7.75361 33.0839 7.78912C33.1411 7.82463 33.1871 7.87542 33.2167 7.9357C33.2463 7.99598 33.2584 8.06334 33.2514 8.13011C33.2445 8.19687 33.2189 8.26035 33.1775 8.31333L28.1402 14.7647C28.0886 14.8311 28.0152 14.8773 27.9328 14.8954C27.8505 14.9134 27.7644 14.902 27.6896 14.8633C27.6148 14.8245 27.5561 14.7609 27.5236 14.6834C27.4911 14.6059 27.487 14.5195 27.5119 14.4392L28.808 10.2437H26.4167C26.3607 10.2437 26.3055 10.2308 26.2555 10.2059C26.2055 10.1809 26.162 10.1447 26.1284 10.1001C26.0949 10.0555 26.0723 10.0038 26.0624 9.94892C26.0524 9.89409 26.0555 9.8377 26.0712 9.78424L27.8703 3.6913ZM28.4849 4.15078L26.8974 9.5269H29.2952C29.3515 9.52689 29.407 9.54004 29.4573 9.5653C29.5075 9.59056 29.5512 9.62722 29.5846 9.67234C29.6181 9.71745 29.6405 9.76976 29.6499 9.82505C29.6594 9.88034 29.6557 9.93707 29.6391 9.99068L28.777 12.7812L32.1578 8.45168H29.655C29.598 8.45163 29.5418 8.43811 29.4911 8.41222C29.4404 8.38633 29.3966 8.34881 29.3633 8.30276C29.33 8.2567 29.3081 8.20343 29.2995 8.14731C29.291 8.0912 29.2959 8.03386 29.3139 7.98001L30.5948 4.15078H28.4849Z" fill="#F15152"/>
<path d="M7.52608 13.24H9.50471V14.1838C9.50471 14.3827 9.3435 14.5439 9.14464 14.5439H7.88615C7.68729 14.5439 7.52608 14.3827 7.52608 14.1838V13.24Z" fill="#F15152" stroke="#0E1821" stroke-width="0.720136"/>
<path d="M6.40108 10.0913H10.6287V12.8343C10.6287 13.0332 10.4675 13.1944 10.2686 13.1944H6.76115C6.56229 13.1944 6.40108 13.0332 6.40108 12.8343V10.0913Z" fill="#F15152" stroke="#0E1821" stroke-width="0.720136"/>
<line x1="7.25712" y1="9.59599" x2="7.25712" y2="8.29205" stroke="#0E1821" stroke-width="0.720136" stroke-linecap="round"/>
<line x1="9.72978" y1="9.59599" x2="9.72978" y2="8.29205" stroke="#0E1821" stroke-width="0.720136" stroke-linecap="round"/>
<path d="M27.2951 21.5384H18.9739C18.0743 21.426 17.876 21.1417 17.6245 20.6388C17.3996 20.189 17.5121 19.177 17.737 18.7272C18.0078 18.1856 18.6366 17.8151 19.0864 17.7152C20.0984 17.4903 21.2229 17.7152 22.1225 18.165C22.8337 18.5206 23.3981 19.4677 24.0341 19.6268C24.4839 19.7393 27.1827 19.7392 27.6325 19.9641C28.0823 20.189 28.1947 21.2385 27.2951 21.5384Z" fill="white" stroke="#0E1821" stroke-width="0.720136" stroke-linecap="round" stroke-linejoin="round"/>
</svg>
