<svg width="48" height="48" viewBox="0 0 48 48" fill="none" xmlns="http://www.w3.org/2000/svg">
<rect x="0.840537" y="13.8028" width="7.20136" height="20.4039" rx="3.60068" fill="#0E1821" stroke="#0E1821" stroke-width="0.720136"/>
<mask id="path-2-inside-1_202_8395" fill="white">
<path fill-rule="evenodd" clip-rule="evenodd" d="M8.40299 24.9648H5.76178C4.43605 24.9648 3.36133 23.8901 3.36133 22.5644V13.592C3.70492 13.4948 4.0675 13.4427 4.44224 13.4427C6.6297 13.4427 8.40299 15.216 8.40299 17.4035V24.9648Z"/>
</mask>
<path fill-rule="evenodd" clip-rule="evenodd" d="M8.40299 24.9648H5.76178C4.43605 24.9648 3.36133 23.8901 3.36133 22.5644V13.592C3.70492 13.4948 4.0675 13.4427 4.44224 13.4427C6.6297 13.4427 8.40299 15.216 8.40299 17.4035V24.9648Z" fill="white"/>
<path d="M8.40299 24.9648V25.685H9.12312V24.9648H8.40299ZM3.36133 13.592L3.16521 12.8991L2.64119 13.0474V13.592H3.36133ZM8.40299 24.2447H5.76178V25.685H8.40299V24.2447ZM5.76178 24.2447C4.83377 24.2447 4.08146 23.4924 4.08146 22.5644H2.64119C2.64119 24.2878 4.03833 25.685 5.76178 25.685V24.2447ZM4.08146 22.5644V13.592H2.64119V22.5644H4.08146ZM3.55745 14.285C3.83786 14.2056 4.13446 14.1629 4.44224 14.1629V12.7226C4.00054 12.7226 3.57198 12.784 3.16521 12.8991L3.55745 14.285ZM4.44224 14.1629C6.23198 14.1629 7.68285 15.6138 7.68285 17.4035H9.12312C9.12312 14.8183 7.02742 12.7226 4.44224 12.7226V14.1629ZM7.68285 17.4035V24.9648H9.12312V17.4035H7.68285Z" fill="#0E1821" mask="url(#path-2-inside-1_202_8395)"/>
<rect x="39.7282" y="13.8028" width="7.20136" height="20.4039" rx="3.60068" fill="#0E1821" stroke="#0E1821" stroke-width="0.720136"/>
<path d="M8.04171 20.5237H22.5645C23.2936 20.5237 23.8847 21.1148 23.8847 21.844V25.9247C23.8847 27.1842 22.8637 28.2052 21.6043 28.2052H8.04171V20.5237Z" fill="#4878A6" stroke="#0E1821" stroke-width="0.720136"/>
<mask id="path-6-inside-2_202_8395" fill="white">
<path fill-rule="evenodd" clip-rule="evenodd" d="M39.3656 24.9643H42.0068C43.3325 24.9643 44.4072 23.8896 44.4072 22.5639V13.5916C44.0636 13.4943 43.7011 13.4423 43.3263 13.4423C41.1389 13.4423 39.3656 15.2155 39.3656 17.403V24.9643Z"/>
</mask>
<path fill-rule="evenodd" clip-rule="evenodd" d="M39.3656 24.9643H42.0068C43.3325 24.9643 44.4072 23.8896 44.4072 22.5639V13.5916C44.0636 13.4943 43.7011 13.4423 43.3263 13.4423C41.1389 13.4423 39.3656 15.2155 39.3656 17.403V24.9643Z" fill="white"/>
<path d="M39.3656 24.9643V25.6845H38.6454V24.9643H39.3656ZM44.4072 13.5916L44.6033 12.8986L45.1274 13.0469V13.5916H44.4072ZM39.3656 24.2442H42.0068V25.6845H39.3656V24.2442ZM42.0068 24.2442C42.9348 24.2442 43.6871 23.4919 43.6871 22.5639H45.1274C45.1274 24.2873 43.7302 25.6845 42.0068 25.6845V24.2442ZM43.6871 22.5639V13.5916H45.1274V22.5639H43.6871ZM44.2111 14.2845C43.9307 14.2051 43.6341 14.1624 43.3263 14.1624V12.7221C43.768 12.7221 44.1966 12.7835 44.6033 12.8986L44.2111 14.2845ZM43.3263 14.1624C41.5366 14.1624 40.0857 15.6133 40.0857 17.403H38.6454C38.6454 14.8178 40.7411 12.7221 43.3263 12.7221V14.1624ZM40.0857 17.403V24.9643H38.6454V17.403H40.0857Z" fill="#0E1821" mask="url(#path-6-inside-2_202_8395)"/>
<path d="M39.7259 20.5237H25.2031C24.474 20.5237 23.8829 21.1148 23.8829 21.844V25.9247C23.8829 27.1842 24.9039 28.2052 26.1633 28.2052H39.7259V20.5237Z" fill="#4878A6" stroke="#0E1821" stroke-width="0.720136"/>
<line x1="8.40234" y1="24.6049" x2="39.3682" y2="24.6049" stroke="#0E1821" stroke-width="0.720136"/>
<rect x="18.4834" y="25.6846" width="1.44027" height="5.281" rx="0.720137" transform="rotate(90 18.4834 25.6846)" fill="white"/>
<rect x="34.5674" y="25.6846" width="1.44027" height="5.281" rx="0.720137" transform="rotate(90 34.5674 25.6846)" fill="white"/>
<line x1="10.4411" y1="22.4443" x2="21.2432" y2="22.4443" stroke="#0E1821" stroke-width="0.720136" stroke-linecap="round"/>
<line x1="26.5251" y1="22.4443" x2="37.3272" y2="22.4443" stroke="#0E1821" stroke-width="0.720136" stroke-linecap="round"/>
</svg>
