<svg width="48" height="48" viewBox="0 0 48 48" fill="none" xmlns="http://www.w3.org/2000/svg">
<g clip-path="url(#clip0_202_8404)">
<rect x="22.9269" y="4.07585" width="2.25106" height="26.2457" fill="#4878A6" stroke="#0E1821" stroke-width="0.695652"/>
<rect x="3.98357" y="29.7549" width="6.25016" height="17.8265" rx="3.12508" fill="#0E1821" stroke="#0E1821" stroke-width="0.695652"/>
<mask id="path-3-inside-1_202_8404" fill="white">
<path fill-rule="evenodd" clip-rule="evenodd" d="M10.5816 39.5096H8.47997C7.19931 39.5096 6.16113 38.4714 6.16113 37.1908V29.5374C6.46233 29.4522 6.78016 29.4066 7.10865 29.4066C9.02668 29.4066 10.5816 30.9615 10.5816 32.8795V39.5096Z"/>
</mask>
<path fill-rule="evenodd" clip-rule="evenodd" d="M10.5816 39.5096H8.47997C7.19931 39.5096 6.16113 38.4714 6.16113 37.1908V29.5374C6.46233 29.4522 6.78016 29.4066 7.10865 29.4066C9.02668 29.4066 10.5816 30.9615 10.5816 32.8795V39.5096Z" fill="white"/>
<path d="M10.5816 39.5096V40.2053H11.2772V39.5096H10.5816ZM6.16113 29.5374L5.97173 28.8681L5.46548 29.0113V29.5374H6.16113ZM10.5816 38.814H8.47997V40.2053H10.5816V38.814ZM8.47997 38.814C7.58351 38.814 6.85678 38.0872 6.85678 37.1908H5.46548C5.46548 38.8556 6.81512 40.2053 8.47997 40.2053V38.814ZM6.85678 37.1908V29.5374H5.46548V37.1908H6.85678ZM6.35053 30.2068C6.59071 30.1389 6.84483 30.1023 7.10865 30.1023V28.711C6.7155 28.711 6.33395 28.7656 5.97173 28.8681L6.35053 30.2068ZM7.10865 30.1023C8.64249 30.1023 9.88591 31.3457 9.88591 32.8795H11.2772C11.2772 30.5773 9.41088 28.711 7.10865 28.711V30.1023ZM9.88591 32.8795V39.5096H11.2772V32.8795H9.88591Z" fill="#0E1821" mask="url(#path-3-inside-1_202_8404)"/>
<rect x="38.0812" y="29.7543" width="6.25016" height="17.8265" rx="3.12508" fill="#0E1821" stroke="#0E1821" stroke-width="0.695652"/>
<mask id="path-6-inside-2_202_8404" fill="white">
<path fill-rule="evenodd" clip-rule="evenodd" d="M37.7309 39.5096H39.8325C41.1132 39.5096 42.1514 38.4714 42.1514 37.1908V29.5374C41.8502 29.4522 41.5323 29.4066 41.2038 29.4066C39.2858 29.4066 37.7309 30.9615 37.7309 32.8795V39.5096Z"/>
</mask>
<path fill-rule="evenodd" clip-rule="evenodd" d="M37.7309 39.5096H39.8325C41.1132 39.5096 42.1514 38.4714 42.1514 37.1908V29.5374C41.8502 29.4522 41.5323 29.4066 41.2038 29.4066C39.2858 29.4066 37.7309 30.9615 37.7309 32.8795V39.5096Z" fill="white"/>
<path d="M37.7309 39.5096V40.2053H37.0353V39.5096H37.7309ZM42.1514 29.5374L42.3408 28.8681L42.847 29.0113V29.5374H42.1514ZM37.7309 38.814H39.8325V40.2053H37.7309V38.814ZM39.8325 38.814C40.729 38.814 41.4557 38.0872 41.4557 37.1908H42.847C42.847 38.8556 41.4974 40.2053 39.8325 40.2053V38.814ZM41.4557 37.1908V29.5374H42.847V37.1908H41.4557ZM41.962 30.2068C41.7218 30.1389 41.4677 30.1023 41.2038 30.1023V28.711C41.597 28.711 41.9786 28.7656 42.3408 28.8681L41.962 30.2068ZM41.2038 30.1023C39.67 30.1023 38.4266 31.3457 38.4266 32.8795H37.0353C37.0353 30.5773 38.9016 28.711 41.2038 28.711V30.1023ZM38.4266 32.8795V39.5096H37.0353V32.8795H38.4266Z" fill="#0E1821" mask="url(#path-6-inside-2_202_8404)"/>
<line x1="9.95215" y1="42.319" x2="37.9459" y2="42.319" stroke="#0E1821" stroke-width="0.695652"/>
<mask id="path-9-inside-3_202_8404" fill="white">
<path fill-rule="evenodd" clip-rule="evenodd" d="M24.0537 29.6169C22.31 29.6169 20.8965 31.0305 20.8965 32.7741V35.2998H9.95117V39.5094H38.3659V35.2998H27.2109V32.7741C27.2109 31.0305 25.7973 29.6169 24.0537 29.6169Z"/>
</mask>
<path fill-rule="evenodd" clip-rule="evenodd" d="M24.0537 29.6169C22.31 29.6169 20.8965 31.0305 20.8965 32.7741V35.2998H9.95117V39.5094H38.3659V35.2998H27.2109V32.7741C27.2109 31.0305 25.7973 29.6169 24.0537 29.6169Z" fill="#2A5275"/>
<path d="M20.8965 35.2998V35.9955H21.5921V35.2998H20.8965ZM9.95117 35.2998V34.6042H9.25552V35.2998H9.95117ZM9.95117 39.5094H9.25552V40.205H9.95117V39.5094ZM38.3659 39.5094V40.205H39.0615V39.5094H38.3659ZM38.3659 35.2998H39.0615V34.6042H38.3659V35.2998ZM27.2109 35.2998H26.5152V35.9955H27.2109V35.2998ZM21.5921 32.7741C21.5921 31.4147 22.6942 30.3126 24.0537 30.3126V28.9213C21.9258 28.9213 20.2008 30.6463 20.2008 32.7741H21.5921ZM21.5921 35.2998V32.7741H20.2008V35.2998H21.5921ZM9.95117 35.9955H20.8965V34.6042H9.95117V35.9955ZM10.6468 39.5094V35.2998H9.25552V39.5094H10.6468ZM38.3659 38.8137H9.95117V40.205H38.3659V38.8137ZM37.6702 35.2998V39.5094H39.0615V35.2998H37.6702ZM27.2109 35.9955H38.3659V34.6042H27.2109V35.9955ZM26.5152 32.7741V35.2998H27.9065V32.7741H26.5152ZM24.0537 30.3126C25.4131 30.3126 26.5152 31.4147 26.5152 32.7741H27.9065C27.9065 30.6463 26.1815 28.9213 24.0537 28.9213V30.3126Z" fill="#0E1821" mask="url(#path-9-inside-3_202_8404)"/>
<rect x="13.6662" y="1.33953" width="20.7732" height="1.61962" rx="0.80981" fill="#4878A6" stroke="#0E1821" stroke-width="0.695652"/>
<rect x="20.1906" y="0.287035" width="7.72352" height="3.72441" rx="1.86221" fill="#F15152" stroke="#0E1821" stroke-width="0.695652"/>
<circle cx="23.8442" cy="16.9883" r="2.59888" fill="#F15152" stroke="#0E1821" stroke-width="0.695652"/>
<rect x="10.2443" y="39.0724" width="27.8261" height="3.24638" fill="white" stroke="#0E1821" stroke-width="0.695652"/>
</g>
<defs>
<clipPath id="clip0_202_8404">
<rect width="48" height="48" fill="white"/>
</clipPath>
</defs>
</svg>
